<svg xmlns="http://www.w3.org/2000/svg" viewBox="0 0 23 32" style="fill:#ff6b08">
    <path d="M21.69 16.579c-0.347-0.739-0.751-1.377-1.225-1.955l0.013 0.016c-1.454-1.842-1.891-5.866-1.891-5.914-0.027-0.244-0.233-0.432-0.482-0.432-0.134 0-0.255 0.054-0.342 0.141v0c-1.745 1.939-0.97 4.896-0.63 6.108 0.097 0.291 0.242 0.679 0.291 1.066 0.63 3.151-0.582 4.557-0.873 4.848-0.242 0.097-0.485 0-0.63-0.145-0.582-0.679-0.776-2.86-0.485-5.672 0.021-0.188 0.034-0.405 0.034-0.625 0-0.344-0.030-0.681-0.087-1.009l0.005 0.035c-0.63-3.49-2.763-5.72-3.345-6.496-1.503-2.278-1.648-6.060-1.648-6.060 0-0.268-0.217-0.485-0.485-0.485-0.11 0-0.211 0.036-0.292 0.098l0.001-0.001c-2.521 1.745-2.327 5.914-1.939 8.241 0.048 0.582 0.194 1.115 0.485 1.842 0.97 2.472-0.194 5.72-0.194 5.72v0.097c-0.194 0.776-0.436 1.26-0.727 1.26h-0.097c-0.339-0.097-0.485-0.485-0.485-0.776-0.048-4.121-4.169-5.526-4.218-5.526-0.037-0.010-0.080-0.016-0.124-0.016-0.143 0-0.272 0.062-0.361 0.161l-0 0c-0.077 0.085-0.124 0.199-0.124 0.324 0 0.058 0.010 0.113 0.028 0.164l-0.001-0.003c0.048 0.145 0.194 0.582 0.097 2.181-0.097 1.406-0.339 2.812-0.727 4.121-0.97 3.248-0.824 6.302-0.824 6.447 0.727 8.241 12.507 9.695 19.488 5.042 0.776-0.485 1.406-1.115 1.891-1.745 2.569-3.587 1.018-8.435-0.097-11.053zM3.753 24.481c0 0.242-0.145 0.485-0.436 0.485-0.001 0-0.002 0-0.002 0-0.251 0-0.457-0.19-0.482-0.434l-0-0.002v-2.23c0-0.291 0.242-0.485 0.485-0.485 0.291 0 0.485 0.242 0.485 0.485v2.181zM4.044 20.166c-0.048 0.242-0.242 0.485-0.485 0.485l-0.097-0.048c-0.225-0.045-0.391-0.241-0.391-0.476 0-0.020 0.001-0.040 0.004-0.060l-0 0.002 0.194-1.891c0.048-0.242 0.291-0.436 0.582-0.388 0.242 0 0.436 0.242 0.388 0.485l-0.194 1.939zM18.393 6.641c-0.228-0.042-0.399-0.24-0.399-0.477 0-0.037 0.004-0.073 0.012-0.108l-0.001 0.003c0-0.194 0.194-1.163 0.679-1.697 0.091-0.097 0.22-0.158 0.364-0.158 0.275 0 0.497 0.223 0.497 0.497 0 0.131-0.051 0.251-0.134 0.34l0-0c-0.234 0.329-0.404 0.721-0.482 1.146l-0.003 0.018c0 0.291-0.242 0.485-0.485 0.436zM0.748 9.065c-0.096-0.445-0.282-0.836-0.538-1.17l0.005 0.007c-0.13-0.088-0.215-0.236-0.215-0.402 0-0.268 0.217-0.485 0.485-0.485 0.143 0 0.271 0.062 0.36 0.16l0 0c0.485 0.485 0.776 1.454 0.824 1.648 0.009 0.036 0.015 0.078 0.015 0.121 0 0.276-0.224 0.5-0.5 0.5-0.233 0-0.429-0.159-0.484-0.375l-0.001-0.003z"></path>
</svg>