<svg xmlns="http://www.w3.org/2000/svg" viewBox="0 0 23 32" fill="#ff6b08"><path d="M21.69 16.579a9.22 9.22 0 00-1.225-1.955l.013.016c-1.454-1.842-1.891-5.866-1.891-5.914a.485.485 0 00-.824-.291c-1.745 1.939-.97 4.896-.63 6.108.097.291.242.679.291 1.066.63 3.151-.582 4.557-.873 4.848a.588.588 0 01-.63-.145c-.582-.679-.776-2.86-.485-5.672a5.748 5.748 0 00-.053-1.634l.005.035c-.63-3.49-2.763-5.72-3.345-6.496-1.503-2.278-1.648-6.06-1.648-6.06a.485.485 0 00-.777-.387l.001-.001C7.098 1.842 7.292 6.011 7.68 8.338c.048.582.194 1.115.485 1.842.97 2.472-.194 5.72-.194 5.72v.097c-.194.776-.436 1.26-.727 1.26h-.097c-.339-.097-.485-.485-.485-.776-.048-4.121-4.169-5.526-4.218-5.526a.483.483 0 00-.485.145.481.481 0 00-.096.488l-.001-.003c.048.145.194.582.097 2.181a19.293 19.293 0 01-.727 4.121c-.97 3.248-.824 6.302-.824 6.447.727 8.241 12.507 9.695 19.488 5.042a7.31 7.31 0 001.891-1.745c2.569-3.587 1.018-8.435-.097-11.053zM3.753 24.481c0 .242-.145.485-.436.485h-.002a.484.484 0 01-.482-.434V22.3a.486.486 0 01.97 0v2.181zm.291-4.315c-.048.242-.242.485-.485.485l-.097-.048a.485.485 0 01-.387-.536v.002l.194-1.891a.504.504 0 01.582-.388c.242 0 .436.242.388.485l-.194 1.939zM18.393 6.641a.486.486 0 01-.387-.585l-.001.003c0-.194.194-1.163.679-1.697a.497.497 0 11.727.679 2.88 2.88 0 00-.482 1.146l-.003.018c0 .291-.242.485-.485.436zM.748 9.065a2.918 2.918 0 00-.538-1.17l.005.007a.486.486 0 01.27-.887c.143 0 .271.062.36.16.485.485.776 1.454.824 1.648a.5.5 0 01-.969.246l-.001-.003z"/></svg>