<svg aria-hidden="true" style="position:absolute;width:0;height:0" xmlns="http://www.w3.org/2000/svg" overflow="hidden"><defs><symbol id="icon-Audio_Book" viewBox="0 0 38 32"><path d="M2.353 29.881h12.549A3.849 3.849 0 0018.336 32l.1-.001h-.005.784c1.569 0 2.823-.784 3.451-2.118h12.627a2.353 2.353 0 002.353-2.353V4.941a2.353 2.353 0 00-2.353-2.353h-1.255v-1.02c0-.866-.702-1.569-1.569-1.569H5.176c-.866 0-1.569.702-1.569 1.569v1.02H2.352A2.353 2.353 0 00-.001 4.941v22.587a2.353 2.353 0 002.353 2.353zm30.116-4.862H19.607V6.745c2.98.392 5.255 2.98 5.255 6.039v.706h-.157a.784.784 0 00-.94.623l-.001.005-1.255 5.647c-.078.392.157.784.627.863l2.667.627h.392c1.02 0 1.804-.627 1.961-1.569l.784-3.216c.235-1.098-.471-2.196-1.569-2.353l-.941-.314v-.941c0-3.921-2.98-7.215-6.823-7.608V1.568h12.862zm-7.372-9.882l1.961.471c.235 0 .392.235.314.471l-.784 3.294c0 .235-.235.392-.471.392l-1.882-.471.863-4.078zM5.176 1.569h12.862v3.608c-3.85.411-6.823 3.642-6.823 7.567v.043-.002 1.02l-.941.235a1.964 1.964 0 00-1.566 2.366l-.002-.013.784 3.294a2.043 2.043 0 002.365 1.567l-.013.002 2.667-.627c.471 0 .706-.471.627-.863l-1.255-5.725a.787.787 0 00-.947-.547l.005-.001h-.157v-.706c0-3.137 2.353-5.647 5.255-6.039v18.274H5.175zm7.373 13.568l.863 4.157-1.882.392a.469.469 0 01-.548-.311l-.001-.003-.784-3.294c0-.078 0-.235.157-.314l.235-.157zM1.569 5.019c0-.392.314-.784.784-.784h1.255v20.862c0 .784.784 1.569 1.569 1.569H32.47c.866 0 1.569-.702 1.569-1.569V4.157h1.255c.471 0 .784.392.784.784v22.587a.786.786 0 01-.784.784H22.196l-.036-.001a.786.786 0 00-.747.544l-.002.006a2.358 2.358 0 01-2.195 1.569h-.785a2.355 2.355 0 01-2.191-1.552l-.005-.016a.786.786 0 00-.748-.55l-.038.001h.002H2.353a.784.784 0 01-.784-.784V4.942z"/></symbol><symbol id="icon-call" viewBox="0 0 33 32"><path d="M4.903 0c-.629 0-1.132.252-1.51.755L.751 3.649l-.126.126a.62.62 0 000 .129v-.003C-.633 7.424.122 11.325 1.883 14.973c1.887 3.649 4.655 7.046 8.178 10.066 3.271 2.894 6.92 5.033 10.443 6.291 3.523 1.007 7.046 1.007 9.562-.881l2.768-3.02c.755-.881.755-2.265 0-3.02l-6.417-5.788c-.881-.755-2.265-.629-3.02.126l-3.02 3.271c-2.265-.755-4.278-1.887-6.291-3.649a15.514 15.514 0 01-3.99-5.808l-.036-.105 2.768-3.02c.755-.881.755-2.139 0-2.894L6.285.503C5.908.126 5.404 0 5.027 0zm0 1.258l.503.252 6.417 5.788c.377.377.377.755 0 1.132l-3.02 3.523a.626.626 0 00.002.633l-.002-.003c.881 2.642 2.516 4.781 4.53 6.794 2.139 1.887 4.53 3.271 7.172 4.026a.628.628 0 00.628-.25l.001-.002 3.271-3.523c.252-.252.755-.252 1.132 0l6.291 5.788c.377.252.377.755 0 1.132l-2.516 2.894c-2.139 1.51-5.033 1.636-8.43.503-7.751-2.811-13.964-8.289-17.657-15.301l-.084-.175c-1.119-1.953-1.778-4.293-1.778-6.787 0-1.164.144-2.294.414-3.375l-.02.095 2.516-2.768c.252-.252.377-.252.629-.252z"/></symbol><symbol id="icon-Check" viewBox="0 0 39 32"><path d="M34.436 1.495a29.214 29.214 0 00-4.423 2.447l.104-.066a51.918 51.918 0 00-7.531 6.202l.001-.001a81.861 81.861 0 00-6.588 7.253l-2.768 3.488L3.598 6.424-.001 16.5l12.955 15.502c1.273-2.547 2.436-5.093 3.654-7.253l.886-1.661 1.938-3.322c1.606-2.657 3.322-5.315 5.204-7.751 1.938-2.547 3.986-4.927 6.367-7.031A28.166 28.166 0 0138.79.071l.186-.069c-1.55.332-3.1.886-4.595 1.55z"/></symbol><symbol id="icon-dollar" viewBox="0 0 27 32"><path d="M.542 13.742c0 .357-.542.357-.542 0C0 6.154 6.154 0 13.742 0c7.591 0 13.742 6.154 13.742 13.742 0 .357-.538.357-.538 0 0-5.129-8.428-5.132-8.428 0 0 .357-.555.357-.555 0 0-5.116-8.441-5.116-8.441 0 0 .357-.555.357-.555 0 0-5.106-8.425-5.142-8.425 0zm8.473-1.992c.146-2.952.61-5.599 1.285-7.62.539-1.606 1.22-2.826 1.992-3.51C6.498 1.253 1.807 5.645.759 11.342c1.995-2.877 6.602-2.647 8.256.409zm8.905-.133c-.149-2.839-.6-5.379-1.249-7.315-1.674-5.012-4.185-5.012-5.859 0-.649 1.937-1.097 4.477-1.249 7.315 1.8-3.059 6.556-3.059 8.357 0zm8.804-.276A13.204 13.204 0 0015.191.619c.775.684 1.453 1.904 1.992 3.51.675 2.021 1.139 4.668 1.285 7.62 1.664-3.072 6.284-3.254 8.256-.409zm-14.786 8.688v-2.79c-.503.334-.899.85-.899 1.479 0 .613.402 1.019.899 1.311zm.542.866c-.963-.441-1.979-.957-1.979-2.177 0-1.259.957-1.888 1.979-2.358zm3.065 3.344v2.822c.509-.337.908-.856.908-1.486 0-.62-.409-1.038-.908-1.337zm-.538-.869c.967.448 1.989.98 1.989 2.206 0 1.262-.963 1.891-1.989 2.358z"/><path d="M15.545 14.063c2.219.513 4.499 2.173 4.499 4.655 0 2.125-3.591 2.047-3.591 0 0-.633-.399-1.152-.908-1.486v3.971c2.053.672 4.506 1.875 4.506 4.373 0 2.485-2.281 4.143-4.506 4.652-.01 2.365-3.601 2.362-3.607-.003-1.265-.292-2.365-.882-3.16-1.664-.834-.824-1.327-1.859-1.327-2.985 0-2.092 3.588-2.092 3.588 0 0 .626.396 1.142.899 1.476v-3.967c-2.037-.659-4.503-1.898-4.503-4.373 0-2.485 2.281-4.143 4.503-4.652.01-2.365 3.601-2.362 3.607.003zm-3.065.006v.431c-2.112.418-4.506 1.771-4.506 4.211 0 2.345 2.628 3.396 4.506 3.977v5.242c-1.015-.464-1.979-1.09-1.979-2.355 0-1.382-2.511-1.382-2.511 0 0 .976.435 1.878 1.168 2.598.931.921 2.06 1.359 3.322 1.609v.435c0 1.664 2.527 1.664 2.527 0v-.431c2.118-.422 4.503-1.774 4.503-4.211 0-2.368-2.621-3.387-4.503-3.98v-5.239c1.019.464 1.989 1.09 1.989 2.362 0 1.346 2.508 1.401 2.508 0 0-2.436-2.381-3.792-4.496-4.214v-.435c0-1.664-2.527-1.664-2.527 0z"/></symbol><symbol id="icon-fire" viewBox="0 0 23 32"><path d="M21.69 16.579a9.22 9.22 0 00-1.225-1.955l.013.016c-1.454-1.842-1.891-5.866-1.891-5.914a.485.485 0 00-.824-.291c-1.745 1.939-.97 4.896-.63 6.108.097.291.242.679.291 1.066.63 3.151-.582 4.557-.873 4.848a.588.588 0 01-.63-.145c-.582-.679-.776-2.86-.485-5.672a5.748 5.748 0 00-.053-1.634l.005.035c-.63-3.49-2.763-5.72-3.345-6.496-1.503-2.278-1.648-6.06-1.648-6.06a.485.485 0 00-.777-.387l.001-.001C7.098 1.842 7.292 6.011 7.68 8.338c.048.582.194 1.115.485 1.842.97 2.472-.194 5.72-.194 5.72v.097c-.194.776-.436 1.26-.727 1.26h-.097c-.339-.097-.485-.485-.485-.776-.048-4.121-4.169-5.526-4.218-5.526a.483.483 0 00-.485.145.481.481 0 00-.096.488l-.001-.003c.048.145.194.582.097 2.181a19.293 19.293 0 01-.727 4.121c-.97 3.248-.824 6.302-.824 6.447.727 8.241 12.507 9.695 19.488 5.042a7.31 7.31 0 001.891-1.745c2.569-3.587 1.018-8.435-.097-11.053zM3.753 24.481c0 .242-.145.485-.436.485h-.002a.484.484 0 01-.482-.434V22.3a.486.486 0 01.97 0v2.181zm.291-4.315c-.048.242-.242.485-.485.485l-.097-.048a.485.485 0 01-.387-.536v.002l.194-1.891a.504.504 0 01.582-.388c.242 0 .436.242.388.485l-.194 1.939zM18.393 6.641a.486.486 0 01-.387-.585l-.001.003c0-.194.194-1.163.679-1.697a.497.497 0 11.727.679 2.88 2.88 0 00-.482 1.146l-.003.018c0 .291-.242.485-.485.436zM.748 9.065a2.918 2.918 0 00-.538-1.17l.005.007a.486.486 0 01.27-.887c.143 0 .271.062.36.16.485.485.776 1.454.824 1.648a.5.5 0 01-.969.246l-.001-.003z"/></symbol><symbol id="icon-global_communication" viewBox="0 0 32 32"><path d="M1.981 12.582v2.824c0 .149.099.297.198.396a11.024 11.024 0 006.826 2.348c.775 0 1.531-.079 2.261-.231l-.072.012c1.442.663 3.128 1.049 4.904 1.049s3.462-.386 4.979-1.08l-.075.031c3.071.594 6.341-.05 9.015-2.13.099-.099.198-.248.198-.396v-2.824c0-.446-.198-.793-.594-1.04l-3.864-2.229c.842-1.09 1.486-2.576 1.585-3.913a4.161 4.161 0 00-7.035-3.368l.001-.001-.198.198A4.364 4.364 0 0015.627.052l.025-.003h-.396v.05a4.473 4.473 0 00-3.01 2.158l-.011.022A4.155 4.155 0 009.066.793h-.001c-3.963 0-5.647 4.607-2.576 8.57l-3.913 2.18c-.347.248-.495.594-.495.991zm18.973 4.26l-.248.099a10.842 10.842 0 01-4.661 1.037c-2.503 0-4.811-.837-6.66-2.245l.027.02V12.88l.099-.248 4.557-2.477c.545.446 1.288.793 2.031.793s1.486-.347 2.031-.842l4.508 2.477.149.297v2.873c-.594.396-1.189.793-1.833 1.09zm8.173-4.458l.099.198v2.576c-1.981 1.486-4.359 2.13-6.737 1.981l1.09-.793c.099-.099.198-.198.198-.396v-3.071c0-.495-.248-.842-.644-1.09l-2.328-1.337.594-.347a2.811 2.811 0 001.829.743h.004c.694 0 1.387-.297 1.882-.743l4.062 2.279zM23.183 1.783c1.387 0 2.576.941 3.022 2.18a3.604 3.604 0 01-2.229-1.139.493.493 0 00-.791.097l-.001.002a3.831 3.831 0 01-2.526 1.734v-.644l-.05-.099c0-.248-.099-.545-.149-.594.594-.892 1.635-1.486 2.724-1.486zm-2.626 3.864a4.663 4.663 0 003.114-1.724l.007-.009c.793.594 1.734.991 2.724.991 0 1.833-1.486 4.954-3.22 4.954-1.337 0-2.477-1.882-2.873-3.22zm.099 3.715l-.892.495-.892-.495c.326-.404.623-.859.871-1.342l.021-.045c.248.495.495.991.892 1.387zm-1.337-2.873c-.495 1.387-1.734 3.467-3.22 3.467-1.734 0-3.22-2.873-3.467-4.706 0 0 2.378.149 4.012-1.981.842.694 1.932 1.139 2.972 1.189.05.644-.099 1.387-.297 1.981zm-3.17-5.449c2.774 0 3.269 2.378 3.319 2.427-.991-.099-1.932-.594-2.526-1.288a.493.493 0 00-.791.097l-.001.002a4.066 4.066 0 01-3.623 1.981h.006A3.47 3.47 0 0116.157.99h-.008zm-3.716 6.935c.248.495.594.991.941 1.387l-.892.495-.892-.495c.347-.446.644-.941.842-1.437zM8.966 1.783c1.139 0 2.18.594 2.774 1.486l-.149.594a3.293 3.293 0 01-1.783-1.04.496.496 0 00-.792.048l-.001.002a3.72 3.72 0 01-3.169 1.833h-.002c.149-1.635 1.486-2.923 3.17-2.923zM5.845 5.697c1.486 0 2.774-.694 3.666-1.783.594.495 1.288.793 2.031.941.05.594.198 1.288.347 1.783-.248.842-.793 1.833-1.437 2.477-.396.495-.991.743-1.486.743-1.536 0-2.774-2.477-3.121-4.161zm-2.873 6.885c0-.099 0-.149.099-.198l4.111-2.279.347.297c.495.297.892.495 1.486.495.694 0 1.238-.297 1.783-.743l.099-.05.594.347-2.477 1.337c-.347.248-.594.644-.594 1.09v3.071c0 .198.099.297.198.396l1.09.793a10.212 10.212 0 01-6.737-1.981z"/><path d="M31.207 20.755a2.055 2.055 0 00-1.082-.304c-.327 0-.636.075-.912.21l.012-.005-6.142 2.972a2.094 2.094 0 00-2.081-2.081h-3.468c-1.783-1.486-3.963-2.427-5.944-2.477l-4.607-.05v-.991H-.002v11.492h6.935v-1.387c2.727 1.76 5.912 3.1 9.323 3.83l.188.034c4.161-.248 14.068-7.232 14.712-7.678a2.082 2.082 0 00.058-3.561l-.009-.005zM5.944 28.532H.99v-9.511h4.954zm24.768-5.052h-.05c-.099.099-10.254 7.282-14.217 7.529h-.149c-3.515-.879-6.605-2.259-9.377-4.083l.114.07v-6.985l4.557.05c1.833.05 3.864.941 5.449 2.328l.149.149h3.864a1.141 1.141 0 01.007 2.228l-.008.001h-7.183v.991h7.133c.694 0 1.288-.347 1.684-.842l6.935-3.368c.396-.149.743-.149 1.09.05.297.198.495.545.495.941s-.198.743-.545.941zM15.604 12.186h.991v.941h-.991zm0 1.833h.991v.941h-.991zm0 1.783h.991v.941h-.991z"/></symbol><symbol id="icon-instagram" viewBox="0 0 32 32"><path fill="var(--color1, #000)" d="M31.45 5.725A5.834 5.834 0 0026.301.552L26.275.55C23.192.201 19.619.002 16 .002S8.807.201 5.291.589L5.725.55A5.834 5.834 0 00.552 5.699l-.002.026C.201 8.808.002 12.381.002 16s.199 7.193.587 10.709l-.039-.434a5.834 5.834 0 005.149 5.173l.026.002c3.083.349 6.656.548 10.275.548s7.193-.199 10.709-.587l-.434.039a5.834 5.834 0 005.173-5.149l.002-.026c.349-3.083.548-6.656.548-10.275s-.199-7.193-.587-10.709l.039.434z"/><path fill="var(--color1, #000)" d="M29.712 6.881a5.177 5.177 0 00-4.571-4.592l-.023-.002c-2.736-.309-5.907-.486-9.119-.486s-6.383.176-9.504.52l.385-.034a5.177 5.177 0 00-4.592 4.571l-.002.023C1.977 9.617 1.8 12.788 1.8 16s.176 6.383.52 9.504l-.034-.385a5.177 5.177 0 004.571 4.592l.023.002c2.736.31 5.907.486 9.119.486s6.383-.177 9.504-.521l-.385.034a5.177 5.177 0 004.592-4.571l.002-.023c.31-2.736.486-5.907.486-9.119s-.177-6.383-.521-9.504l.034.385z"/><path fill="var(--color1, #000)" d="M.481 25.613l.062.663a5.834 5.834 0 005.155 5.173l.026.002c3.083.349 6.656.548 10.275.548s7.193-.199 10.709-.587l-.434.039a5.834 5.834 0 005.173-5.149l.002-.026.069-.663z"/><path fill="var(--color1, #000)" d="M31.45 26.275c.394-3.675.575-7.363.544-11.044l-7.313-7.313a5.231 5.231 0 00-3.807-1.75h-.005a135.48 135.48 0 00-9.688 0c-2.688.094-4.556 1.894-5.037 4.537-.081.469-.131.938-.2 1.412v7.762c.037.25.088.5.106.75a5.638 5.638 0 001.827 3.921l.004.004 7.437 7.438c3.656.031 7.313-.15 10.956-.544a5.834 5.834 0 005.173-5.149l.002-.026z"/><path fill="var(--color1, #000)" d="M31.45 26.275a5.834 5.834 0 01-5.149 5.173l-.026.002c-3.644.394-7.3.575-10.95.55l-7.438-7.438a5.184 5.184 0 003.288 1.262h.006c3.225.125 6.456.125 9.688 0a5.19 5.19 0 005.113-5.174v-.001a149.727 149.727 0 00-.006-9.537l.006.237a5.382 5.382 0 00-1.3-3.432l.006.007 7.313 7.313a97.35 97.35 0 01-.55 11.037z"/><path fill="var(--color1, #000)" d="M19.775 12.537a5.126 5.126 0 10-7.247 7.241l.003.003 11.862 11.856 1.881-.188a5.834 5.834 0 005.173-5.149l.002-.026c.069-.625.125-1.25.188-1.881zm12.163 6.913l-9.544-9.544a1.22 1.22 0 10-1.71 1.704l.003.002 11.081 11.075c.075-1.075.125-2.156.169-3.238z"/><path fill="var(--color1, #000)" d="M5.938 12.119c.075-.469.125-.944.206-1.412.481-2.644 2.356-4.444 5.044-4.537a135.48 135.48 0 019.688 0 5.189 5.189 0 015.113 5.181 149.727 149.727 0 01-.006 9.537l.006-.237a5.187 5.187 0 01-5.115 5.181h-.004c-3.225.113-6.456.119-9.688 0-2.912-.113-4.931-2.275-5.125-5.2-.019-.25-.069-.5-.106-.75v-7.769zM16 24.1c1.481 0 2.956.044 4.431-.012 2.313-.081 3.731-1.462 3.788-3.769.063-2.875.063-5.762 0-8.637-.056-2.313-1.475-3.719-3.788-3.769a204.891 204.891 0 00-8.8 0c-2.294.044-3.719 1.431-3.781 3.712a157.566 157.566 0 000 8.75c.063 2.281 1.488 3.625 3.781 3.712 1.456.063 2.912.012 4.375.012z"/><path fill="var(--color2, #fff)" d="M5.938 12.119c.075-.469.125-.944.206-1.412.481-2.644 2.356-4.444 5.044-4.537a135.48 135.48 0 019.688 0 5.189 5.189 0 015.113 5.181 149.727 149.727 0 01-.006 9.537l.006-.237a5.187 5.187 0 01-5.115 5.181h-.004c-3.225.113-6.456.119-9.688 0-2.912-.113-4.931-2.275-5.125-5.2-.019-.25-.069-.5-.106-.75v-7.769zM16 24.1c1.481 0 2.956.044 4.431-.012 2.313-.081 3.731-1.462 3.788-3.769.063-2.875.063-5.762 0-8.637-.056-2.313-1.475-3.719-3.788-3.769a204.891 204.891 0 00-8.8 0c-2.294.044-3.719 1.431-3.781 3.712a157.566 157.566 0 000 8.75c.063 2.281 1.488 3.625 3.781 3.712 1.456.063 2.912.012 4.375.012z"/><path fill="var(--color2, #fff)" d="M16 10.875a5.126 5.126 0 000 10.25 5.126 5.126 0 000-10.25zm0 8.488a3.363 3.363 0 110-6.726 3.363 3.363 0 110 6.726zm6.644-8.719a1.22 1.22 0 01-2.438 0 1.22 1.22 0 012.438 0z"/></symbol><symbol id="icon-Mobile_Learning" viewBox="0 0 31 32"><path d="M29.281 0H13.683c-1.006 0-1.811.855-1.811 1.862v6.44L.249 13.233a.352.352 0 00-.052.653l.002.001 1.509.855v9.409A1.713 1.713 0 00.4 25.811v.906c0 .201.151.403.352.403h2.667c.201 0 .352-.201.352-.403v-.906c0-.805-.553-1.509-1.308-1.66v-8.906l1.157.704v4.327c0 1.61 4.075 2.465 8.252 2.516v7.346c0 .403.101.755.302 1.006.352.503.906.855 1.509.855h15.598c1.006 0 1.862-.855 1.862-1.862V1.86a1.858 1.858 0 00-1.862-1.862zM3.017 25.811v.503H1.155v-.503a.956.956 0 111.861.006l.001-.007zm26.264 5.384H13.683a1.106 1.106 0 01-1.056-1.054v-2.518h17.761v2.516c0 .604-.503 1.057-1.107 1.057zm1.157-4.377H12.627v-4.025c2.013 0 8.252-.503 8.252-2.516V15.9l3.371-2.013a.402.402 0 00.002-.703l-.002-.001-11.623-4.88v-3.12h17.761v21.635zm-18.113-9.057c-2.113 0-6.138.302-7.899 1.409 0-3.522-.151-3.27.302-3.522 1.951-.906 4.235-1.434 6.643-1.434.318 0 .634.009.948.027l-.043-.002c1.509 0 7.899.453 7.899 1.761v3.17c-2.082-.905-4.508-1.431-7.056-1.431-.314 0-.627.008-.937.024l.044-.002zm.352-15.899c0-.604.503-1.057 1.057-1.057h15.597c.604 0 1.107.503 1.107 1.057v2.516H12.627V1.862zm-.402 7.144l11.019 4.579-2.717 1.66c-1.509-1.459-6.239-1.761-8.302-1.761-2.013 0-6.792.302-8.252 1.761l-2.767-1.66 10.969-4.579zm-7.9 11.271c0-.604 2.717-1.761 7.849-1.761 5.182 0 7.899 1.157 7.899 1.761s-2.717 1.761-7.899 1.761c-5.132 0-7.849-1.157-7.849-1.761z"/><path d="M21.482 28.176a1.258 1.258 0 100 2.516 1.258 1.258 0 100-2.516zm0 1.711a.503.503 0 110-1.006.503.503 0 110 1.006zM20.073 2.214h2.868v.755h-2.868z"/></symbol><symbol id="icon-open_book" viewBox="0 0 44 32"><path d="M5.425 4.532h13.734v1.03H5.425zm2.06 3.846h11.674v1.03H7.485zm-2.06 3.845h13.734v1.03H5.425zM7.485 16h11.674v1.03H7.485zm-2.06 3.846h13.734v1.03H5.425zm2.06 3.845h11.674v1.03H7.485zM24.309 4.532h13.734v1.03H24.309zm0 3.846h11.674v1.03H24.309zm0 3.845h13.734v1.03H24.309zm0 3.777h11.674v1.03H24.309zm0 3.846h13.734v1.03H24.309zm0 3.845h11.674v1.03H24.309z"/><path d="M43.056 3.296h-1.854V.549A.542.542 0 0040.653 0H25.271a3.987 3.987 0 00-3.502 2.06C21.082.824 19.778 0 18.336 0H2.885a.47.47 0 00-.481.481v2.884H.481A.47.47 0 000 3.846V31.52a.47.47 0 00.481.481h42.575c.275 0 .549-.206.549-.481V3.846c0-.275-.275-.481-.549-.481zM25.202 1.03h14.97v27.605h-16a2.93 2.93 0 00-1.854.687V3.983a2.931 2.931 0 012.953-2.953zm-21.769 0h14.833c1.648 0 2.953 1.236 2.953 2.815v25.408c-.412-.343-1.099-.687-1.854-.687H3.434V1.098zM1.03 4.395h1.373v24.721c0 .275.206.549.481.549h16.481c.824 0 1.579.481 1.785 1.373H1.03V4.326zM42.575 30.97H22.386c.206-.824.961-1.373 1.785-1.373h16.481c.275 0 .549-.206.549-.481V4.395h1.373z"/></symbol><symbol id="icon-Student" viewBox="0 0 28 32"><path d="M.084 32h27.754c.1-3.151-.1-8.401-2.05-10.852l-.05-.1-4.251-2.15.15-.8c0-.25 0-.5-.1-.7a5.943 5.943 0 00-2.963-2.886l-.038-.015c.25-.5.4-1 .5-1.6.45-.1.8-.5.9-1l.5-2a1.344 1.344 0 00-.448-1.348l-.002-.002c1.4-3.151-.95-6.151-1.05-6.301-2.55-2.75-5.751-2.2-5.951-2.2-4.601 1-6.401 4.501-5.401 8.651-.3.3-.4.8-.3 1.25l.5 2c.15.5.5.85 1 1 .1 1 .5 1.85 1.15 2.6v1.6l-7.751 3.901c0 .05-2.5 2.7-2.15 10.502V32zm26.754-1h-4.501v-1.9l3-6.901c1.5 2.5 1.5 7.301 1.5 8.801zm-6.151-13.002c-.2 2.05-1.3 1.45-2 3a2.29 2.29 0 01-.497-2.067l-.003.016c.2-1.4-.65-1.8-.4-3.301l.25-.3c1.8.8 2.65 2.25 2.65 2.7zm-9.702-1.55a5.105 5.105 0 002.95.928c1.041 0 2.01-.309 2.821-.84l-.02.012c.15 1.15.6 1.35.45 2.2l-.1.5-3.101 3.501-4.001-4.501 1-.5zm-1.3-4.251V6.846c.5-.9 1.15-1.5 2-1.95 2.15 1.25 4.701 3.101 6.401 5.001v2.5a4.202 4.202 0 01-8.402-.075l.001-.079v.004zm-.6 6.501l4.851 5.501 3.301-3.651.3.6-3.601 4.451-5.251-6.651.45-.2zm10.002-7.301v-1.55l.35-.45c0 .8.1-.15-.35 2zM13.186 1.045c.2 0 2.85-.4 5.001 1.85.05.1 1.8 2.3 1.1 4.701a7.002 7.002 0 00-1.313-3.119l.013.018-.7.75c.6.65 1 2.65 1.2 3.651-2.95-3.05-6.751-5.001-6.801-5.001-.15.1-1.8.4-2.95 2.65l-.05.1v1.6h-.15c-.75-3.501.7-6.401 4.651-7.201zM8.435 9.246l.25 1v1.1l-.4-1.7c-.1-.25.1-.35.15-.4zm-.75 10.152l6.251 7.851 4.251-5.301c.5.4.7.45 1.65.95l-.35-1.1c-.05-.3.25-.75.5-1a3.024 3.024 0 001.043-.988l.007-.012 3.501 1.75-3.251 7.351v2.1H6.585v-2.1l-3.2-7.351zm-5.101 2.85l3 6.901v1.9H1.083c-.05-1.5 0-6.301 1.5-8.801z"/></symbol><symbol id="icon-study_program" viewBox="0 0 30 32"><path d="M29.684 4.999V4.93h-.035v-.035L24.788.104V.069h-.069V.034H3.472a.274.274 0 00-.278.278v29.337l2.257 2.257a.273.273 0 00.382 0l1.979-1.944 1.944 1.944a.277.277 0 00.416 0l1.944-1.944 1.979 1.944a.273.273 0 00.382 0l1.979-1.944 1.944 1.944c.139.104.312.104.417 0l1.944-1.944 1.979 1.944a.278.278 0 00.382 0l1.979-1.944 1.944 1.944c.139.104.312.104.417 0l2.187-2.187v-.035l.035-.069V5.104zM24.893.972l3.819 3.819h-3.819zm4.235 28.469l-1.875 1.875-1.944-1.979a.275.275 0 00-.416 0l-1.944 1.979-1.979-1.979a.278.278 0 00-.382 0l-1.979 1.979-1.944-1.979a.275.275 0 00-.416 0l-1.944 1.979-1.979-1.979a.278.278 0 00-.382 0l-1.979 1.979-1.944-1.979a.275.275 0 00-.416 0l-1.944 1.979-1.875-1.875V.59h20.553v4.513c0 .139.139.278.278.278h4.513z"/><path d="M5.902 3.264h9.27a.278.278 0 000-.556h-9.27a.278.278 0 000 .556zm0 1.735h14.859a.278.278 0 000-.556H5.902a.278.278 0 000 .556zM5.59 6.596v9.166c0 .174.139.278.312.278h21.109c.174 0 .278-.104.278-.278V6.631c0-.174-.104-.278-.278-.278H5.902c-.174 0-.312.104-.312.278zm6.249.278h14.894v2.43H11.874v-2.43zm0 3.021h14.894v2.43H11.874v-2.43zm0 2.985h14.894v2.604H11.874V12.88zM6.18 6.874h5.138v2.43H6.18zm0 3.021h5.138v2.43H6.18zm0 2.985h5.138v2.604H6.18zm20.831 4.444H5.902c-.174 0-.312.139-.312.278v9.2a.295.295 0 10.59 0V23.92h5.138v2.882a.278.278 0 00.556 0V23.92h14.859v2.882a.278.278 0 00.556 0v-9.2a.274.274 0 00-.278-.278zm-15.693 6.007H6.18v-2.43h5.138zm0-2.986H6.18v-2.43h5.138zm15.415 2.986H11.874v-2.43h14.859zm0-2.986H11.874v-2.43h14.859zM1.875.035c-.174 0-.312.104-.312.278v29.233a.295.295 0 10.59 0V.313c0-.174-.139-.312-.278-.312zm-1.597 0A.274.274 0 000 .313v29.233a.295.295 0 10.59 0V.313C.59.139.451.001.312.001z"/></symbol><symbol id="icon-vk" viewBox="0 0 57 32"><path fill="var(--color3, #436eab)" d="M48.654 20.352c1.877 1.822 3.865 3.545 5.543 5.566.74.894 1.436 1.822 1.988 2.86.762 1.48.066 3.103-1.259 3.191h-8.238a6.342 6.342 0 01-5.24-2.125l-.006-.007c-1.137-1.171-2.197-2.407-3.291-3.6-.442-.497-.917-.961-1.48-1.325-1.126-.729-2.098-.497-2.739.663a8.54 8.54 0 00-.873 3.788v.07-.004c-.088 1.932-.674 2.451-2.617 2.54-4.174.188-8.116-.442-11.794-2.54-3.236-1.855-5.742-4.461-7.929-7.421C6.468 16.244 3.21 9.916.284 3.401-.379 1.932.107 1.148 1.72 1.115c2.694-.044 5.378-.044 8.061 0 1.104.022 1.822.64 2.242 1.679 1.562 3.871 3.397 7.205 5.571 10.283l-.105-.157a8.697 8.697 0 002.045 2.249l.02.015c.961.663 1.678.442 2.131-.618a6.882 6.882 0 00.474-2.11l.001-.021c.221-2.485.243-4.969-.133-7.443-.221-1.546-1.104-2.54-2.65-2.838-.773-.155-.663-.442-.276-.883.663-.784 1.281-1.27 2.518-1.27h9.309c1.469.287 1.789.95 1.988 2.429l.011 10.336c-.011.574.287 2.264 1.325 2.65.817.265 1.358-.398 1.855-.917a32.024 32.024 0 005.152-7.862l.082-.199a43.892 43.892 0 001.576-3.553l.124-.356c.386-.994.994-1.469 2.098-1.436h8.967c.265 0 .53 0 .795.044 1.502.265 1.921.905 1.458 2.385-.74 2.319-2.164 4.24-3.567 6.184-1.491 2.054-3.092 4.053-4.572 6.14-1.358 1.899-1.259 2.849.442 4.505z"/></symbol></defs></svg>