<svg aria-hidden="true" style="position: absolute; width: 0; height: 0; overflow: hidden;" version="1.1" xmlns="http://www.w3.org/2000/svg" xmlns:xlink="http://www.w3.org/1999/xlink">
<defs>
<symbol id="icon-Audio_Book" viewBox="0 0 38 32">
<path d="M2.353 29.881h12.549c0.646 1.267 1.941 2.119 3.434 2.119 0.033 0 0.067-0 0.1-0.001l-0.005 0h0.784c1.569 0 2.823-0.784 3.451-2.118h12.627c1.299 0 2.353-1.053 2.353-2.353v0-22.587c0-1.299-1.053-2.353-2.353-2.353v0h-1.255v-1.020c0-0.866-0.702-1.569-1.569-1.569v0h-27.293c-0.866 0-1.569 0.702-1.569 1.569v0 1.020h-1.255c-1.299 0-2.353 1.053-2.353 2.353v0 22.587c0 1.299 1.053 2.353 2.353 2.353v0zM32.469 25.019h-12.862v-18.274c2.98 0.392 5.255 2.98 5.255 6.039v0.706h-0.157c-0.051-0.012-0.109-0.018-0.169-0.018-0.384 0-0.704 0.276-0.771 0.641l-0.001 0.005-1.255 5.647c-0.078 0.392 0.157 0.784 0.627 0.863l2.667 0.627h0.392c1.020 0 1.804-0.627 1.961-1.569l0.784-3.216c0.235-1.098-0.471-2.196-1.569-2.353l-0.941-0.314v-0.941c0-3.921-2.98-7.215-6.823-7.608v-3.686h12.862zM25.097 15.137l1.961 0.471c0.235 0 0.392 0.235 0.314 0.471l-0.784 3.294c0 0.235-0.235 0.392-0.471 0.392l-1.882-0.471 0.863-4.078zM5.176 1.569h12.862v3.608c-3.85 0.411-6.823 3.642-6.823 7.567 0 0.014 0 0.028 0 0.043v-0.002 1.020l-0.941 0.235c-0.924 0.17-1.615 0.969-1.615 1.93 0 0.15 0.017 0.296 0.049 0.436l-0.002-0.013 0.784 3.294c0.208 0.922 1.021 1.601 1.991 1.601 0.128 0 0.253-0.012 0.374-0.034l-0.013 0.002 2.667-0.627c0.471 0 0.706-0.471 0.627-0.863l-1.255-5.725c-0.096-0.332-0.398-0.571-0.755-0.571-0.066 0-0.13 0.008-0.192 0.024l0.005-0.001h-0.157v-0.706c0-3.137 2.353-5.647 5.255-6.039v18.274h-12.862zM12.549 15.137l0.863 4.157-1.882 0.392c-0.031 0.007-0.066 0.011-0.102 0.011-0.208 0-0.384-0.135-0.446-0.322l-0.001-0.003-0.784-3.294c0-0.078 0-0.235 0.157-0.314l0.235-0.157zM1.569 5.019c0-0.392 0.314-0.784 0.784-0.784h1.255v20.862c0 0.784 0.784 1.569 1.569 1.569h27.293c0.866 0 1.569-0.702 1.569-1.569v0-20.94h1.255c0.471 0 0.784 0.392 0.784 0.784v22.587c0 0.392-0.314 0.784-0.784 0.784h-13.098c-0.011-0.001-0.023-0.001-0.036-0.001-0.349 0-0.645 0.229-0.747 0.544l-0.002 0.006c-0.33 0.915-1.187 1.559-2.195 1.569h-0.785c-1.009-0.010-1.866-0.654-2.191-1.552l-0.005-0.016c-0.103-0.321-0.399-0.55-0.748-0.55-0.013 0-0.025 0-0.038 0.001l0.002-0h-13.098c-0.433 0-0.784-0.351-0.784-0.784v0-22.587z"></path>
</symbol>
<symbol id="icon-call" viewBox="0 0 33 32">
<path d="M4.903 0c-0.629 0-1.132 0.252-1.51 0.755l-2.642 2.894-0.126 0.126c-0.002 0.019-0.003 0.041-0.003 0.063s0.001 0.044 0.003 0.066l-0-0.003c-1.258 3.523-0.503 7.424 1.258 11.072 1.887 3.649 4.655 7.046 8.178 10.066 3.271 2.894 6.92 5.033 10.443 6.291 3.523 1.007 7.046 1.007 9.562-0.881l2.768-3.020c0.755-0.881 0.755-2.265 0-3.020l-6.417-5.788c-0.881-0.755-2.265-0.629-3.020 0.126l-3.020 3.271c-2.265-0.755-4.278-1.887-6.291-3.649-1.748-1.599-3.12-3.578-3.99-5.808l-0.036-0.105 2.768-3.020c0.755-0.881 0.755-2.139 0-2.894l-6.543-6.039c-0.377-0.377-0.881-0.503-1.258-0.503zM4.903 1.258l0.503 0.252 6.417 5.788c0.377 0.377 0.377 0.755 0 1.132l-3.020 3.523c-0.053 0.090-0.084 0.199-0.084 0.315s0.031 0.224 0.086 0.318l-0.002-0.003c0.881 2.642 2.516 4.781 4.53 6.794 2.139 1.887 4.53 3.271 7.172 4.026 0.035 0.007 0.076 0.011 0.118 0.011 0.21 0 0.396-0.103 0.51-0.261l0.001-0.002 3.271-3.523c0.252-0.252 0.755-0.252 1.132 0l6.291 5.788c0.377 0.252 0.377 0.755 0 1.132l-2.516 2.894c-2.139 1.51-5.033 1.636-8.43 0.503-7.751-2.811-13.964-8.289-17.657-15.301l-0.084-0.175c-1.119-1.953-1.778-4.293-1.778-6.787 0-1.164 0.144-2.294 0.414-3.375l-0.020 0.095 2.516-2.768c0.252-0.252 0.377-0.252 0.629-0.252z"></path>
</symbol>
<symbol id="icon-Check" viewBox="0 0 39 32">
<path d="M34.436 1.495c-1.667 0.75-3.084 1.545-4.423 2.447l0.104-0.066c-2.815 1.915-5.276 3.955-7.531 6.202l0.001-0.001c-2.325 2.27-4.54 4.706-6.588 7.253l-2.768 3.488-9.633-14.394-3.599 10.076 12.955 15.502c1.273-2.547 2.436-5.093 3.654-7.253l0.886-1.661 1.938-3.322c1.606-2.657 3.322-5.315 5.204-7.751 1.938-2.547 3.986-4.927 6.367-7.031 2.271-2.023 4.907-3.7 7.787-4.913l0.186-0.069c-1.55 0.332-3.1 0.886-4.595 1.55z"></path>
</symbol>
<symbol id="icon-dollar" viewBox="0 0 27 32">
<path d="M0.542 13.742c0 0.357-0.542 0.357-0.542 0 0-7.588 6.154-13.742 13.742-13.742 7.591 0 13.742 6.154 13.742 13.742 0 0.357-0.538 0.357-0.538 0 0-5.129-8.428-5.132-8.428 0 0 0.357-0.555 0.357-0.555 0 0-5.116-8.441-5.116-8.441 0 0 0.357-0.555 0.357-0.555 0 0-5.106-8.425-5.142-8.425 0zM9.015 11.75c0.146-2.952 0.61-5.599 1.285-7.62 0.539-1.606 1.22-2.826 1.992-3.51-5.794 0.633-10.485 5.025-11.533 10.722 1.995-2.877 6.602-2.647 8.256 0.409zM17.92 11.617c-0.149-2.839-0.6-5.379-1.249-7.315-1.674-5.012-4.185-5.012-5.859 0-0.649 1.937-1.097 4.477-1.249 7.315 1.8-3.059 6.556-3.059 8.357 0zM26.724 11.341c-1.045-5.697-5.735-10.089-11.533-10.722 0.775 0.684 1.453 1.904 1.992 3.51 0.675 2.021 1.139 4.668 1.285 7.62 1.664-3.072 6.284-3.254 8.256-0.409zM11.938 20.029v-2.79c-0.503 0.334-0.899 0.85-0.899 1.479 0 0.613 0.402 1.019 0.899 1.311zM12.48 20.895c-0.963-0.441-1.979-0.957-1.979-2.177 0-1.259 0.957-1.888 1.979-2.358zM15.545 24.239v2.822c0.509-0.337 0.908-0.856 0.908-1.486 0-0.62-0.409-1.038-0.908-1.337zM15.007 23.37c0.967 0.448 1.989 0.98 1.989 2.206 0 1.262-0.963 1.891-1.989 2.358z"></path>
<path d="M15.545 14.063c2.219 0.513 4.499 2.173 4.499 4.655 0 2.125-3.591 2.047-3.591 0 0-0.633-0.399-1.152-0.908-1.486v3.971c2.053 0.672 4.506 1.875 4.506 4.373 0 2.485-2.281 4.143-4.506 4.652-0.010 2.365-3.601 2.362-3.607-0.003-1.265-0.292-2.365-0.882-3.16-1.664-0.834-0.824-1.327-1.859-1.327-2.985 0-2.092 3.588-2.092 3.588 0 0 0.626 0.396 1.142 0.899 1.476v-3.967c-2.037-0.659-4.503-1.898-4.503-4.373 0-2.485 2.281-4.143 4.503-4.652 0.010-2.365 3.601-2.362 3.607 0.003zM12.48 14.069v0.431c-2.112 0.418-4.506 1.771-4.506 4.211 0 2.345 2.628 3.396 4.506 3.977v5.242c-1.015-0.464-1.979-1.090-1.979-2.355 0-1.382-2.511-1.382-2.511 0 0 0.976 0.435 1.878 1.168 2.598 0.931 0.921 2.060 1.359 3.322 1.609v0.435c0 1.664 2.527 1.664 2.527 0v-0.431c2.118-0.422 4.503-1.774 4.503-4.211 0-2.368-2.621-3.387-4.503-3.98v-5.239c1.019 0.464 1.989 1.090 1.989 2.362 0 1.346 2.508 1.401 2.508 0 0-2.436-2.381-3.792-4.496-4.214v-0.435c0-1.664-2.527-1.664-2.527 0z"></path>
</symbol>
<symbol id="icon-fire" viewBox="0 0 23 32">
<path d="M21.69 16.579c-0.347-0.739-0.751-1.377-1.225-1.955l0.013 0.016c-1.454-1.842-1.891-5.866-1.891-5.914-0.027-0.244-0.233-0.432-0.482-0.432-0.134 0-0.255 0.054-0.342 0.141v0c-1.745 1.939-0.97 4.896-0.63 6.108 0.097 0.291 0.242 0.679 0.291 1.066 0.63 3.151-0.582 4.557-0.873 4.848-0.242 0.097-0.485 0-0.63-0.145-0.582-0.679-0.776-2.86-0.485-5.672 0.021-0.188 0.034-0.405 0.034-0.625 0-0.344-0.030-0.681-0.087-1.009l0.005 0.035c-0.63-3.49-2.763-5.72-3.345-6.496-1.503-2.278-1.648-6.060-1.648-6.060 0-0.268-0.217-0.485-0.485-0.485-0.11 0-0.211 0.036-0.292 0.098l0.001-0.001c-2.521 1.745-2.327 5.914-1.939 8.241 0.048 0.582 0.194 1.115 0.485 1.842 0.97 2.472-0.194 5.72-0.194 5.72v0.097c-0.194 0.776-0.436 1.26-0.727 1.26h-0.097c-0.339-0.097-0.485-0.485-0.485-0.776-0.048-4.121-4.169-5.526-4.218-5.526-0.037-0.010-0.080-0.016-0.124-0.016-0.143 0-0.272 0.062-0.361 0.161l-0 0c-0.077 0.085-0.124 0.199-0.124 0.324 0 0.058 0.010 0.113 0.028 0.164l-0.001-0.003c0.048 0.145 0.194 0.582 0.097 2.181-0.097 1.406-0.339 2.812-0.727 4.121-0.97 3.248-0.824 6.302-0.824 6.447 0.727 8.241 12.507 9.695 19.488 5.042 0.776-0.485 1.406-1.115 1.891-1.745 2.569-3.587 1.018-8.435-0.097-11.053zM3.753 24.481c0 0.242-0.145 0.485-0.436 0.485-0.001 0-0.002 0-0.002 0-0.251 0-0.457-0.19-0.482-0.434l-0-0.002v-2.23c0-0.291 0.242-0.485 0.485-0.485 0.291 0 0.485 0.242 0.485 0.485v2.181zM4.044 20.166c-0.048 0.242-0.242 0.485-0.485 0.485l-0.097-0.048c-0.225-0.045-0.391-0.241-0.391-0.476 0-0.020 0.001-0.040 0.004-0.060l-0 0.002 0.194-1.891c0.048-0.242 0.291-0.436 0.582-0.388 0.242 0 0.436 0.242 0.388 0.485l-0.194 1.939zM18.393 6.641c-0.228-0.042-0.399-0.24-0.399-0.477 0-0.037 0.004-0.073 0.012-0.108l-0.001 0.003c0-0.194 0.194-1.163 0.679-1.697 0.091-0.097 0.22-0.158 0.364-0.158 0.275 0 0.497 0.223 0.497 0.497 0 0.131-0.051 0.251-0.134 0.34l0-0c-0.234 0.329-0.404 0.721-0.482 1.146l-0.003 0.018c0 0.291-0.242 0.485-0.485 0.436zM0.748 9.065c-0.096-0.445-0.282-0.836-0.538-1.17l0.005 0.007c-0.13-0.088-0.215-0.236-0.215-0.402 0-0.268 0.217-0.485 0.485-0.485 0.143 0 0.271 0.062 0.36 0.16l0 0c0.485 0.485 0.776 1.454 0.824 1.648 0.009 0.036 0.015 0.078 0.015 0.121 0 0.276-0.224 0.5-0.5 0.5-0.233 0-0.429-0.159-0.484-0.375l-0.001-0.003z"></path>
</symbol>
<symbol id="icon-global_communication" viewBox="0 0 32 32">
<path d="M1.981 12.582v2.824c0 0.149 0.099 0.297 0.198 0.396 1.862 1.464 4.241 2.348 6.826 2.348 0.775 0 1.531-0.079 2.261-0.231l-0.072 0.012c1.442 0.663 3.128 1.049 4.904 1.049s3.462-0.386 4.979-1.080l-0.075 0.031c3.071 0.594 6.341-0.050 9.015-2.13 0.099-0.099 0.198-0.248 0.198-0.396v-2.824c0-0.446-0.198-0.793-0.594-1.040l-3.864-2.229c0.842-1.090 1.486-2.576 1.585-3.913 0.011-0.112 0.017-0.243 0.017-0.375 0-2.298-1.863-4.161-4.161-4.161-1.123 0-2.143 0.445-2.891 1.168l0.001-0.001-0.198 0.198c-0.761-1.34-2.178-2.229-3.803-2.229-0.231 0-0.458 0.018-0.68 0.053l0.025-0.003h-0.396v0.050c-1.304 0.262-2.382 1.064-3.010 2.158l-0.011 0.022c-0.765-0.907-1.9-1.481-3.169-1.486h-0.001c-3.963 0-5.647 4.607-2.576 8.57l-3.913 2.18c-0.347 0.248-0.495 0.594-0.495 0.991zM20.954 16.842l-0.248 0.099c-1.366 0.654-2.969 1.037-4.661 1.037-2.503 0-4.811-0.837-6.66-2.245l0.027 0.020v-2.873l0.099-0.248 4.557-2.477c0.545 0.446 1.288 0.793 2.031 0.793s1.486-0.347 2.031-0.842l4.508 2.477 0.149 0.297v2.873c-0.594 0.396-1.189 0.793-1.833 1.090zM29.127 12.384l0.099 0.198v2.576c-1.981 1.486-4.359 2.13-6.737 1.981l1.090-0.793c0.099-0.099 0.198-0.198 0.198-0.396v-3.071c0-0.495-0.248-0.842-0.644-1.090l-2.328-1.337 0.594-0.347c0.482 0.444 1.123 0.723 1.829 0.743l0.004 0c0.694 0 1.387-0.297 1.882-0.743l4.062 2.279zM23.183 1.783c1.387 0 2.576 0.941 3.022 2.18-0.842-0.099-1.635-0.495-2.229-1.139-0.090-0.096-0.218-0.155-0.36-0.155-0.185 0-0.346 0.101-0.431 0.252l-0.001 0.002c-0.545 0.892-1.486 1.536-2.526 1.734v-0.644l-0.050-0.099c0-0.248-0.099-0.545-0.149-0.594 0.594-0.892 1.635-1.486 2.724-1.486zM20.557 5.647c1.271-0.149 2.368-0.79 3.114-1.724l0.007-0.009c0.793 0.594 1.734 0.991 2.724 0.991 0 1.833-1.486 4.954-3.22 4.954-1.337 0-2.477-1.882-2.873-3.22zM20.656 9.362l-0.892 0.495-0.892-0.495c0.326-0.404 0.623-0.859 0.871-1.342l0.021-0.045c0.248 0.495 0.495 0.991 0.892 1.387zM19.319 6.489c-0.495 1.387-1.734 3.467-3.22 3.467-1.734 0-3.22-2.873-3.467-4.706 0 0 2.378 0.149 4.012-1.981 0.842 0.694 1.932 1.139 2.972 1.189 0.050 0.644-0.099 1.387-0.297 1.981zM16.149 1.040c2.774 0 3.269 2.378 3.319 2.427-0.991-0.099-1.932-0.594-2.526-1.288-0.090-0.096-0.218-0.155-0.36-0.155-0.185 0-0.346 0.101-0.431 0.252l-0.001 0.002c-0.721 1.196-2.014 1.983-3.49 1.983-0.044 0-0.089-0.001-0.133-0.002l0.006 0c0.106-1.829 1.615-3.273 3.462-3.273 0.054 0 0.108 0.001 0.162 0.004l-0.008-0zM12.433 7.975c0.248 0.495 0.594 0.991 0.941 1.387l-0.892 0.495-0.892-0.495c0.347-0.446 0.644-0.941 0.842-1.437zM8.966 1.783c1.139 0 2.18 0.594 2.774 1.486l-0.149 0.594c-0.694-0.149-1.288-0.495-1.783-1.040-0.091-0.107-0.227-0.175-0.378-0.175-0.173 0-0.325 0.088-0.414 0.223l-0.001 0.002c-0.652 1.095-1.825 1.821-3.169 1.833h-0.002c0.149-1.635 1.486-2.923 3.17-2.923zM5.845 5.697c1.486 0 2.774-0.694 3.666-1.783 0.594 0.495 1.288 0.793 2.031 0.941 0.050 0.594 0.198 1.288 0.347 1.783-0.248 0.842-0.793 1.833-1.437 2.477-0.396 0.495-0.991 0.743-1.486 0.743-1.536 0-2.774-2.477-3.121-4.161zM2.972 12.582c0-0.099 0-0.149 0.099-0.198l4.111-2.279 0.347 0.297c0.495 0.297 0.892 0.495 1.486 0.495 0.694 0 1.238-0.297 1.783-0.743l0.099-0.050 0.594 0.347-2.477 1.337c-0.347 0.248-0.594 0.644-0.594 1.090v3.071c0 0.198 0.099 0.297 0.198 0.396l1.090 0.793c-2.427 0.149-4.805-0.545-6.737-1.981z"></path>
<path d="M31.207 20.755c-0.308-0.191-0.682-0.304-1.082-0.304-0.327 0-0.636 0.075-0.912 0.21l0.012-0.005-6.142 2.972c0-1.139-0.941-2.081-2.081-2.081h-3.468c-1.783-1.486-3.963-2.427-5.944-2.477l-4.607-0.050v-0.991h-6.985v11.492h6.935v-1.387c2.727 1.76 5.912 3.1 9.323 3.83l0.188 0.034c4.161-0.248 14.068-7.232 14.712-7.678 0.623-0.367 1.034-1.035 1.034-1.798 0-0.743-0.39-1.395-0.976-1.763l-0.009-0.005zM5.944 28.532h-4.954v-9.511h4.954zM30.712 23.48h-0.050c-0.099 0.099-10.254 7.282-14.217 7.529h-0.149c-3.515-0.879-6.605-2.259-9.377-4.083l0.114 0.070v-6.985l4.557 0.050c1.833 0.050 3.864 0.941 5.449 2.328l0.149 0.149h3.864c0.52 0.113 0.903 0.569 0.903 1.115s-0.383 1.002-0.896 1.113l-0.008 0.001h-7.183v0.991h7.133c0.694 0 1.288-0.347 1.684-0.842l6.935-3.368c0.396-0.149 0.743-0.149 1.090 0.050 0.297 0.198 0.495 0.545 0.495 0.941s-0.198 0.743-0.545 0.941zM15.604 12.186h0.991v0.941h-0.991zM15.604 14.019h0.991v0.941h-0.991zM15.604 15.802h0.991v0.941h-0.991z"></path>
</symbol>
<symbol id="icon-instagram" viewBox="0 0 32 32">
<path fill="#000" style="fill: var(--color1, #000)" d="M31.45 5.725c-0.299-2.729-2.446-4.876-5.149-5.173l-0.026-0.002c-3.083-0.349-6.656-0.548-10.275-0.548s-7.193 0.199-10.709 0.587l0.434-0.039c-2.729 0.299-4.876 2.446-5.173 5.149l-0.002 0.026c-0.349 3.083-0.548 6.656-0.548 10.275s0.199 7.193 0.587 10.709l-0.039-0.434c0.299 2.729 2.446 4.876 5.149 5.173l0.026 0.002c3.083 0.349 6.656 0.548 10.275 0.548s7.193-0.199 10.709-0.587l-0.434 0.039c2.729-0.299 4.876-2.446 5.173-5.149l0.002-0.026c0.349-3.083 0.548-6.656 0.548-10.275s-0.199-7.193-0.587-10.709l0.039 0.434z"></path>
<path fill="#000" style="fill: var(--color1, #000)" d="M29.712 6.881c-0.265-2.423-2.171-4.329-4.571-4.592l-0.023-0.002c-2.736-0.309-5.907-0.486-9.119-0.486s-6.383 0.176-9.504 0.52l0.385-0.034c-2.423 0.265-4.329 2.171-4.592 4.571l-0.002 0.023c-0.309 2.736-0.486 5.907-0.486 9.119s0.176 6.383 0.52 9.504l-0.034-0.385c0.265 2.423 2.171 4.329 4.571 4.592l0.023 0.002c2.736 0.31 5.907 0.486 9.119 0.486s6.383-0.177 9.504-0.521l-0.385 0.034c2.423-0.265 4.329-2.171 4.592-4.571l0.002-0.023c0.31-2.736 0.486-5.907 0.486-9.119s-0.177-6.383-0.521-9.504l0.034 0.385z"></path>
<path fill="#000" style="fill: var(--color1, #000)" d="M0.481 25.613l0.062 0.663c0.3 2.731 2.449 4.879 5.155 5.173l0.026 0.002c3.083 0.349 6.656 0.548 10.275 0.548s7.193-0.199 10.709-0.587l-0.434 0.039c2.729-0.299 4.876-2.446 5.173-5.149l0.002-0.026 0.069-0.663z"></path>
<path fill="#000" style="fill: var(--color1, #000)" d="M31.45 26.275c0.394-3.675 0.575-7.363 0.544-11.044l-7.313-7.313c-0.943-1.053-2.297-1.721-3.807-1.75l-0.005-0c-3.231-0.119-6.463-0.112-9.688 0-2.688 0.094-4.556 1.894-5.037 4.537-0.081 0.469-0.131 0.938-0.2 1.412v7.762c0.037 0.25 0.088 0.5 0.106 0.75 0.069 1.558 0.759 2.942 1.827 3.921l0.004 0.004 7.437 7.438c3.656 0.031 7.313-0.15 10.956-0.544 2.729-0.299 4.876-2.446 5.173-5.149l0.002-0.026z"></path>
<path fill="#000" style="fill: var(--color1, #000)" d="M31.45 26.275c-0.299 2.729-2.446 4.876-5.149 5.173l-0.026 0.002c-3.644 0.394-7.3 0.575-10.95 0.55l-7.438-7.438c0.881 0.762 2.029 1.235 3.288 1.262l0.006 0c3.225 0.125 6.456 0.125 9.688 0 2.828-0.042 5.106-2.342 5.113-5.174v-0.001c0.046-1.386 0.073-3.015 0.073-4.65s-0.026-3.264-0.079-4.887l0.006 0.237c-0.021-1.313-0.507-2.508-1.3-3.432l0.006 0.007 7.313 7.313c0.025 3.675-0.156 7.362-0.55 11.037z"></path>
<path fill="#000" style="fill: var(--color1, #000)" d="M19.775 12.537c-0.938-1.001-2.268-1.625-3.744-1.625-2.83 0-5.125 2.295-5.125 5.125 0 1.476 0.624 2.806 1.622 3.741l0.003 0.003 11.862 11.856 1.881-0.188c2.729-0.299 4.876-2.446 5.173-5.149l0.002-0.026c0.069-0.625 0.125-1.25 0.188-1.881z"></path>
<path fill="#000" style="fill: var(--color1, #000)" d="M31.938 19.45l-9.544-9.544c-0.225-0.297-0.578-0.488-0.975-0.488-0.673 0-1.219 0.546-1.219 1.219 0 0.397 0.19 0.75 0.484 0.973l0.003 0.002 11.081 11.075c0.075-1.075 0.125-2.156 0.169-3.238z"></path>
<path fill="#000" style="fill: var(--color1, #000)" d="M5.938 12.119c0.075-0.469 0.125-0.944 0.206-1.412 0.481-2.644 2.356-4.444 5.044-4.537 3.225-0.112 6.456-0.119 9.688 0 2.831 0.042 5.109 2.345 5.113 5.181v0c0.046 1.386 0.073 3.015 0.073 4.65s-0.026 3.264-0.079 4.887l0.006-0.237c-0.003 2.838-2.286 5.143-5.115 5.181l-0.004 0c-3.225 0.113-6.456 0.119-9.688 0-2.912-0.113-4.931-2.275-5.125-5.2-0.019-0.25-0.069-0.5-0.106-0.75v-7.769zM16 24.1c1.481 0 2.956 0.044 4.431-0.012 2.313-0.081 3.731-1.462 3.788-3.769 0.063-2.875 0.063-5.762 0-8.637-0.056-2.313-1.475-3.719-3.788-3.769-2.938-0.063-5.869-0.063-8.8 0-2.294 0.044-3.719 1.431-3.781 3.712-0.081 2.912-0.081 5.831 0 8.75 0.063 2.281 1.488 3.625 3.781 3.712 1.456 0.063 2.912 0.012 4.375 0.012z"></path>
<path fill="#fff" style="fill: var(--color2, #fff)" d="M5.938 12.119c0.075-0.469 0.125-0.944 0.206-1.412 0.481-2.644 2.356-4.444 5.044-4.537 3.225-0.112 6.456-0.119 9.688 0 2.831 0.042 5.109 2.345 5.113 5.181v0c0.046 1.386 0.073 3.015 0.073 4.65s-0.026 3.264-0.079 4.887l0.006-0.237c-0.003 2.838-2.286 5.143-5.115 5.181l-0.004 0c-3.225 0.113-6.456 0.119-9.688 0-2.912-0.113-4.931-2.275-5.125-5.2-0.019-0.25-0.069-0.5-0.106-0.75v-7.769zM16 24.1c1.481 0 2.956 0.044 4.431-0.012 2.313-0.081 3.731-1.462 3.788-3.769 0.063-2.875 0.063-5.762 0-8.637-0.056-2.313-1.475-3.719-3.788-3.769-2.938-0.063-5.869-0.063-8.8 0-2.294 0.044-3.719 1.431-3.781 3.712-0.081 2.912-0.081 5.831 0 8.75 0.063 2.281 1.488 3.625 3.781 3.712 1.456 0.063 2.912 0.012 4.375 0.012z"></path>
<path fill="#fff" style="fill: var(--color2, #fff)" d="M16 10.875c-2.83 0-5.125 2.295-5.125 5.125s2.295 5.125 5.125 5.125v0c2.83 0 5.125-2.295 5.125-5.125s-2.295-5.125-5.125-5.125v0zM16 19.363c-1.857 0-3.363-1.505-3.363-3.363s1.505-3.363 3.363-3.363v0c1.857 0 3.363 1.505 3.363 3.363s-1.505 3.363-3.363 3.363v0zM22.644 10.644c0 0.673-0.546 1.219-1.219 1.219s-1.219-0.546-1.219-1.219v0c0-0.673 0.546-1.219 1.219-1.219s1.219 0.546 1.219 1.219v0z"></path>
</symbol>
<symbol id="icon-Mobile_Learning" viewBox="0 0 31 32">
<path d="M29.281 0h-15.598c-1.006 0-1.811 0.855-1.811 1.862v6.44l-11.623 4.931c-0.146 0.045-0.249 0.179-0.249 0.337 0 0.139 0.080 0.259 0.197 0.316l0.002 0.001 1.509 0.855v9.409c-0.756 0.188-1.307 0.859-1.308 1.66v0.906c0 0.201 0.151 0.403 0.352 0.403h2.667c0.201 0 0.352-0.201 0.352-0.403v-0.906c0-0.805-0.553-1.509-1.308-1.66v-8.906l1.157 0.704v4.327c0 1.61 4.075 2.465 8.252 2.516v7.346c0 0.403 0.101 0.755 0.302 1.006 0.352 0.503 0.906 0.855 1.509 0.855h15.598c1.006 0 1.862-0.855 1.862-1.862v-28.277c0-1.006-0.805-1.862-1.862-1.862zM3.017 25.811v0.503h-1.862v-0.503c-0.016-0.065-0.025-0.141-0.025-0.218 0-0.528 0.428-0.956 0.956-0.956s0.956 0.428 0.956 0.956c0 0.077-0.009 0.152-0.026 0.224l0.001-0.007zM29.281 31.195h-15.598c-0.573-0.026-1.030-0.484-1.056-1.054l-0-0.002v-2.516h17.761v2.516c0 0.604-0.503 1.057-1.107 1.057zM30.438 26.818h-17.811v-4.025c2.013 0 8.252-0.503 8.252-2.516v-4.377l3.371-2.013c0.125-0.070 0.208-0.201 0.208-0.352s-0.083-0.282-0.206-0.351l-0.002-0.001-11.623-4.88v-3.12h17.761v21.635zM12.325 17.761c-2.113 0-6.138 0.302-7.899 1.409 0-3.522-0.151-3.27 0.302-3.522 1.951-0.906 4.235-1.434 6.643-1.434 0.318 0 0.634 0.009 0.948 0.027l-0.043-0.002c1.509 0 7.899 0.453 7.899 1.761v3.17c-2.082-0.905-4.508-1.431-7.056-1.431-0.314 0-0.627 0.008-0.937 0.024l0.044-0.002zM12.677 1.862c0-0.604 0.503-1.057 1.057-1.057h15.597c0.604 0 1.107 0.503 1.107 1.057v2.516h-17.811v-2.516zM12.275 9.006l11.019 4.579-2.717 1.66c-1.509-1.459-6.239-1.761-8.302-1.761-2.013 0-6.792 0.302-8.252 1.761l-2.767-1.66 10.969-4.579zM4.375 20.277c0-0.604 2.717-1.761 7.849-1.761 5.182 0 7.899 1.157 7.899 1.761s-2.717 1.761-7.899 1.761c-5.132 0-7.849-1.157-7.849-1.761z"></path>
<path d="M21.482 28.176c-0.695 0-1.258 0.563-1.258 1.258s0.563 1.258 1.258 1.258v0c0.695 0 1.258-0.563 1.258-1.258s-0.563-1.258-1.258-1.258v0zM21.482 29.887c-0.278 0-0.503-0.225-0.503-0.503s0.225-0.503 0.503-0.503v0c0.278 0 0.503 0.225 0.503 0.503s-0.225 0.503-0.503 0.503v0zM20.073 2.214h2.868v0.755h-2.868z"></path>
</symbol>
<symbol id="icon-open_book" viewBox="0 0 44 32">
<path d="M5.425 4.532h13.734v1.030h-13.734zM7.485 8.378h11.674v1.030h-11.674zM5.425 12.223h13.734v1.030h-13.734zM7.485 16h11.674v1.030h-11.674zM5.425 19.846h13.734v1.030h-13.734zM7.485 23.691h11.674v1.030h-11.674zM24.309 4.532h13.734v1.030h-13.734zM24.309 8.378h11.674v1.030h-11.674zM24.309 12.223h13.734v1.030h-13.734zM24.309 16h11.674v1.030h-11.674zM24.309 19.846h13.734v1.030h-13.734zM24.309 23.691h11.674v1.030h-11.674z"></path>
<path d="M43.056 3.296h-1.854v-2.747c0-0.343-0.275-0.549-0.549-0.549h-15.382c-1.511 0-2.815 0.824-3.502 2.060-0.687-1.236-1.991-2.060-3.433-2.060h-15.451c-0.275 0-0.481 0.206-0.481 0.481v2.884h-1.923c-0.275 0-0.481 0.206-0.481 0.481v27.674c0 0.275 0.206 0.481 0.481 0.481h42.575c0.275 0 0.549-0.206 0.549-0.481v-27.674c0-0.275-0.275-0.481-0.549-0.481zM25.202 1.030h14.97v27.605h-16c-0.687 0-1.373 0.275-1.854 0.687v-25.339c0-1.648 1.305-2.953 2.953-2.953zM3.433 1.030h14.833c1.648 0 2.953 1.236 2.953 2.815v25.408c-0.412-0.343-1.099-0.687-1.854-0.687h-15.931v-27.468zM1.030 4.395h1.373v24.721c0 0.275 0.206 0.549 0.481 0.549h16.481c0.824 0 1.579 0.481 1.785 1.373h-20.12v-26.712zM42.575 30.97h-20.189c0.206-0.824 0.961-1.373 1.785-1.373h16.481c0.275 0 0.549-0.206 0.549-0.481v-24.721h1.373z"></path>
</symbol>
<symbol id="icon-Student" viewBox="0 0 28 32">
<path d="M0.084 32h27.754c0.1-3.151-0.1-8.401-2.050-10.852l-0.050-0.1-4.251-2.15 0.15-0.8c0-0.25 0-0.5-0.1-0.7-0.624-1.302-1.673-2.318-2.963-2.886l-0.038-0.015c0.25-0.5 0.4-1 0.5-1.6 0.45-0.1 0.8-0.5 0.9-1l0.5-2c0.023-0.094 0.037-0.201 0.037-0.312 0-0.416-0.188-0.789-0.485-1.036l-0.002-0.002c1.4-3.151-0.95-6.151-1.050-6.301-2.55-2.75-5.751-2.2-5.951-2.2-4.601 1-6.401 4.501-5.401 8.651-0.3 0.3-0.4 0.8-0.3 1.25l0.5 2c0.15 0.5 0.5 0.85 1 1 0.1 1 0.5 1.85 1.15 2.6v1.6l-7.751 3.901c0 0.050-2.5 2.7-2.15 10.502v0.45zM26.838 31h-4.501v-1.9l3-6.901c1.5 2.5 1.5 7.301 1.5 8.801zM20.687 17.998c-0.2 2.050-1.3 1.45-2 3-0.351-0.402-0.565-0.931-0.565-1.51 0-0.192 0.023-0.378 0.068-0.557l-0.003 0.016c0.2-1.4-0.65-1.8-0.4-3.301l0.25-0.3c1.8 0.8 2.65 2.25 2.65 2.7zM10.985 16.448c0.822 0.581 1.845 0.928 2.95 0.928 1.041 0 2.010-0.309 2.821-0.84l-0.020 0.012c0.15 1.15 0.6 1.35 0.45 2.2l-0.1 0.5-3.101 3.501-4.001-4.501 1-0.5zM9.685 12.197v-5.351c0.5-0.9 1.15-1.5 2-1.95 2.15 1.25 4.701 3.101 6.401 5.001v2.5c-0.042 2.288-1.907 4.126-4.201 4.126-2.32 0-4.201-1.881-4.201-4.201 0-0.026 0-0.053 0.001-0.079l-0 0.004zM9.085 18.698l4.851 5.501 3.301-3.651 0.3 0.6-3.601 4.451-5.251-6.651 0.45-0.2zM19.087 11.397v-1.55l0.35-0.45c0 0.8 0.1-0.15-0.35 2zM13.186 1.045c0.2 0 2.85-0.4 5.001 1.85 0.050 0.1 1.8 2.3 1.1 4.701-0.189-1.182-0.648-2.232-1.313-3.119l0.013 0.018-0.7 0.75c0.6 0.65 1 2.65 1.2 3.651-2.95-3.050-6.751-5.001-6.801-5.001-0.15 0.1-1.8 0.4-2.95 2.65l-0.050 0.1v1.6h-0.15c-0.75-3.501 0.7-6.401 4.651-7.201zM8.435 9.246l0.25 1v1.1l-0.4-1.7c-0.1-0.25 0.1-0.35 0.15-0.4zM7.685 19.398l6.251 7.851 4.251-5.301c0.5 0.4 0.7 0.45 1.65 0.95l-0.35-1.1c-0.050-0.3 0.25-0.75 0.5-1 0.431-0.248 0.784-0.585 1.043-0.988l0.007-0.012 3.501 1.75-3.251 7.351v2.1h-14.702v-2.1l-3.2-7.351zM2.584 22.248l3 6.901v1.9h-4.501c-0.050-1.5 0-6.301 1.5-8.801z"></path>
</symbol>
<symbol id="icon-study_program" viewBox="0 0 30 32">
<path d="M29.684 4.999v-0.069h-0.035v-0.035l-4.861-4.791v-0.035h-0.069v-0.035h-21.247c-0.139 0-0.278 0.104-0.278 0.278v29.337l2.257 2.257c0.104 0.104 0.278 0.104 0.382 0l1.979-1.944 1.944 1.944c0.051 0.058 0.126 0.094 0.208 0.094s0.157-0.036 0.208-0.094l0-0 1.944-1.944 1.979 1.944c0.104 0.104 0.278 0.104 0.382 0l1.979-1.944 1.944 1.944c0.139 0.104 0.312 0.104 0.417 0l1.944-1.944 1.979 1.944c0.050 0.047 0.117 0.076 0.191 0.076s0.141-0.029 0.191-0.076l-0 0 1.979-1.944 1.944 1.944c0.139 0.104 0.312 0.104 0.417 0l2.187-2.187v-0.035l0.035-0.069v-24.511zM24.893 0.972l3.819 3.819h-3.819zM29.128 29.441l-1.875 1.875-1.944-1.979c-0.051-0.058-0.125-0.094-0.208-0.094s-0.157 0.036-0.208 0.094l-0 0-1.944 1.979-1.979-1.979c-0.050-0.047-0.117-0.076-0.191-0.076s-0.141 0.029-0.191 0.076l-1.979 1.979-1.944-1.979c-0.051-0.058-0.125-0.094-0.208-0.094s-0.157 0.036-0.208 0.094l-0 0-1.944 1.979-1.979-1.979c-0.050-0.047-0.117-0.076-0.191-0.076s-0.141 0.029-0.191 0.076l-1.979 1.979-1.944-1.979c-0.051-0.058-0.125-0.094-0.208-0.094s-0.157 0.036-0.208 0.094l-0 0-1.944 1.979-1.875-1.875v-28.851h20.553v4.513c0 0.139 0.139 0.278 0.278 0.278h4.513z"></path>
<path d="M5.902 3.264h9.27c0.153 0 0.278-0.124 0.278-0.278s-0.124-0.278-0.278-0.278h-9.27c-0.153 0-0.278 0.124-0.278 0.278s0.124 0.278 0.278 0.278v0zM5.902 4.999h14.859c0.153 0 0.278-0.124 0.278-0.278s-0.124-0.278-0.278-0.278h-14.859c-0.153 0-0.278 0.124-0.278 0.278s0.124 0.278 0.278 0.278v0zM5.59 6.596v9.166c0 0.174 0.139 0.278 0.312 0.278h21.109c0.174 0 0.278-0.104 0.278-0.278v-9.131c0-0.174-0.104-0.278-0.278-0.278h-21.109c-0.174 0-0.312 0.104-0.312 0.278zM11.839 6.874h14.894v2.43h-14.859v-2.43zM11.839 9.895h14.894v2.43h-14.859v-2.43zM11.839 12.88h14.894v2.604h-14.859v-2.604zM6.18 6.874h5.138v2.43h-5.138zM6.18 9.895h5.138v2.43h-5.138zM6.18 12.88h5.138v2.604h-5.138zM27.011 17.324h-21.109c-0.174 0-0.312 0.139-0.312 0.278v9.2c0 0.163 0.132 0.295 0.295 0.295s0.295-0.132 0.295-0.295v-2.882h5.138v2.882c0 0.153 0.124 0.278 0.278 0.278s0.278-0.124 0.278-0.278v0-2.882h14.859v2.882c0 0.153 0.124 0.278 0.278 0.278s0.278-0.124 0.278-0.278v0-9.2c0-0.139-0.104-0.278-0.278-0.278zM11.318 23.331h-5.138v-2.43h5.138zM11.318 20.345h-5.138v-2.43h5.138zM26.733 23.331h-14.859v-2.43h14.859zM26.733 20.345h-14.859v-2.43h14.859zM1.875 0.035c-0.174 0-0.312 0.104-0.312 0.278v29.233c0 0.163 0.132 0.295 0.295 0.295s0.295-0.132 0.295-0.295v0-29.233c0-0.174-0.139-0.312-0.278-0.312zM0.278 0.035c-0.139 0-0.278 0.104-0.278 0.278v29.233c0 0.163 0.132 0.295 0.295 0.295s0.295-0.132 0.295-0.295v0-29.233c0-0.174-0.139-0.312-0.278-0.312z"></path>
</symbol>
<symbol id="icon-vk" viewBox="0 0 57 32">
<path fill="#436eab" style="fill: var(--color3, #436eab)" d="M48.654 20.352c1.877 1.822 3.865 3.545 5.543 5.566 0.74 0.894 1.436 1.822 1.988 2.86 0.762 1.48 0.066 3.103-1.259 3.191h-8.238c-0.143 0.011-0.31 0.018-0.479 0.018-1.895 0-3.596-0.828-4.761-2.143l-0.006-0.007c-1.137-1.171-2.197-2.407-3.291-3.6-0.442-0.497-0.917-0.961-1.48-1.325-1.126-0.729-2.098-0.497-2.739 0.663-0.55 1.106-0.873 2.409-0.873 3.788 0 0.023 0 0.046 0 0.070l-0-0.004c-0.088 1.932-0.674 2.451-2.617 2.54-4.174 0.188-8.116-0.442-11.794-2.54-3.236-1.855-5.742-4.461-7.929-7.421-4.251-5.764-7.509-12.092-10.435-18.607-0.663-1.469-0.177-2.253 1.436-2.286 2.694-0.044 5.378-0.044 8.061 0 1.104 0.022 1.822 0.64 2.242 1.679 1.562 3.871 3.397 7.205 5.571 10.283l-0.105-0.157c0.562 0.886 1.248 1.635 2.045 2.249l0.020 0.015c0.961 0.663 1.678 0.442 2.131-0.618 0.254-0.627 0.424-1.352 0.474-2.11l0.001-0.021c0.221-2.485 0.243-4.969-0.133-7.443-0.221-1.546-1.104-2.54-2.65-2.838-0.773-0.155-0.663-0.442-0.276-0.883 0.663-0.784 1.281-1.27 2.518-1.27h9.309c1.469 0.287 1.789 0.95 1.988 2.429l0.011 10.336c-0.011 0.574 0.287 2.264 1.325 2.65 0.817 0.265 1.358-0.398 1.855-0.917 2.065-2.316 3.817-4.973 5.152-7.862l0.082-0.199c0.484-0.951 1.056-2.239 1.576-3.553l0.124-0.356c0.386-0.994 0.994-1.469 2.098-1.436h8.967c0.265 0 0.53 0 0.795 0.044 1.502 0.265 1.921 0.905 1.458 2.385-0.74 2.319-2.164 4.24-3.567 6.184-1.491 2.054-3.092 4.053-4.572 6.14-1.358 1.899-1.259 2.849 0.442 4.505z"></path>
</symbol>
</defs>
</svg>
